<!--?xml version="1.0" encoding="UTF-8"?-->
<svg preserveAspectRatio="xMidYMid meet" data-bbox="-0.015 0 287.725 265.638"
    viewBox="-0.015 0 287.725 265.638" xmlns="http://www.w3.org/2000/svg" data-type="color"
    role="presentation" aria-hidden="true">
    <g>
        <path
            d="m251.69 53.46-8.45 4.7a3.51 3.51 0 0 1-1.77.63 2.06 2.06 0 0 1-2-2.69 11 11 0 0 1 1.33-2.4c1.41-2.27 2.85-4.52 4.27-6.78.19-.31.6-.57.35-1.15l-6.95 6.6c-.32.3-.63.61-1 .88a1.56 1.56 0 0 1-2.34-.15 1.54 1.54 0 0 1 .07-2.26c1-1 2-2 3-2.92 2.43-2.31 4.85-4.63 7.29-6.94 1.18-1.11 1.9-1.09 3.08 0 2.26 2.13 2.29 2.33.64 5l-4.5 7.35c.5.25.79-.12 1.11-.3 2.52-1.36 5-2.76 7.54-4.12 1.81-1 4.81.85 4.85 2.91a1.89 1.89 0 0 1-.75 1.43l-9.8 9.35a4.72 4.72 0 0 1-.73.61 1.66 1.66 0 0 1-2.16-2.51c1.63-1.63 3.33-3.21 5-4.82.75-.72 1.48-1.45 2.22-2.17.05-.11.15-.25.08-.33s-.24.08-.38.08Z"
            fill="#171112" data-color="1"></path>
        <path
            d="m28.46 64.59 6.92 5.3c.34.27.7.53 1 .82.92.82 1.09 1.74.49 2.52a1.72 1.72 0 0 1-2.64.16q-5.62-4.27-11.21-8.61a2.07 2.07 0 0 1-.79-2.54 2 2 0 0 1 2.28-1.34l13.26.94c0-.46-.41-.56-.67-.76-2.36-1.83-4.75-3.65-7.11-5.48-1.13-.88-1.37-1.77-.75-2.64s1.62-1 2.74-.1q5.52 4.2 11 8.46c.78.6 1.49 1.31 1 2.43a2.35 2.35 0 0 1-2.44 1.56c-3.28 0-6.53-.45-9.79-.66a17.59 17.59 0 0 0-3.29-.06Z"
            fill="#171113" data-color="2"></path>
        <path
            d="M2.17 107.49c1.3.41 2.87.87 4.4 1.41.75.27 1.09.18 1.32-.64.52-1.84 1.1-3.67 1.74-5.47.27-.76.07-1-.66-1.2-1.35-.37-2.67-.81-4-1.28S3.19 99 3.51 98s1.28-1.54 2.62-1.13q6.68 2.07 13.33 4.2c1.34.43 1.92 1.34 1.64 2.39s-1.25 1.56-2.72 1.14-3.13-.93-4.67-1.48c-.72-.26-1-.2-1.26.61-.53 1.88-1.14 3.73-1.78 5.58-.22.64-.09.89.56 1.08 1.75.52 3.5 1.07 5.23 1.68a1.68 1.68 0 0 1 1.19 2.17 1.7 1.7 0 0 1-2.21 1.28 7 7 0 0 1-.92-.27l-9-2.84c-1.44-.46-2.9-.88-4.32-1.4a1.67 1.67 0 0 1-1.14-2.1c.23-.91.86-1.42 2.11-1.42Z"
            fill="#171113" data-color="2"></path>
        <path
            d="M85 13.64c0 .81-.57 1.18-1.19 1.49-2.06 1-4.11 2.11-6.2 3.09-.72.34-.84.64-.43 1.31a15.72 15.72 0 0 1 1.12 2.25c.26.61.54.61 1.08.33 1.95-1 3.91-2 5.89-2.93 1.17-.57 2.16-.12 2.26 1 .09.88-.52 1.29-1.18 1.62-1.78.9-3.52 1.88-5.35 2.65-1.08.44-1 .91-.52 1.72a24.37 24.37 0 0 1 1.29 2.55c.25.6.51.64 1.07.35 2.12-1.1 4.27-2.15 6.41-3.21a2.47 2.47 0 0 1 1.47-.39 1.46 1.46 0 0 1 .37 2.76c-1.45.76-2.91 1.48-4.37 2.21s-3 1.55-4.6 2.27-2.23.45-2.94-1q-3-6-6-11.95c-.76-1.53-.51-2.24 1-3q4.2-2.15 8.43-4.24c1.28-.62 2.39-.08 2.39 1.12Z"
            fill="#171113" data-color="2"></path>
        <path
            d="M128.08 0c.89 0 1.47.41 1.53 1.34s-.55 1.37-1.37 1.5c-2.25.35-4.49.72-6.75 1-1 .12-1.5.47-1.16 1.54a.53.53 0 0 1 0 .12c.25.89-.12 2.24.65 2.62s1.85-.14 2.8-.27c1.5-.21 3-.45 4.49-.65A1.28 1.28 0 0 1 130 8.31a1.29 1.29 0 0 1-1.24 1.57c-2.13.33-4.26.66-6.39.95-.83.12-1.26.33-1 1.33a14.86 14.86 0 0 1 .41 2.83c.07.8.45.94 1.17.82 2.32-.39 4.65-.72 7-1.08a1.74 1.74 0 0 1 1.94.54 1.39 1.39 0 0 1-.9 2.22q-5.29.89-10.64 1.57c-1.1.15-1.71-.54-1.92-1.85-.43-2.8-.83-5.6-1.24-8.4-.22-1.46-.46-2.92-.67-4.38-.31-2.14.1-2.69 2.27-3l8.7-1.37Z"
            fill="#171213" data-color="3"></path>
        <path
            d="m183.91 4.33 3.08.93 6.17 1.87c.92.27 1.66.71 1.37 1.85-.24.95-1 1.22-2.22.86-2.25-.67-4.51-1.33-6.74-2-.67-.22-.92-.09-1.06.6a14.84 14.84 0 0 1-.77 2.51c-.27.66 0 .81.56 1q3.09.9 6.17 1.86c.56.18 1.15.37 1.32 1.07.31 1.25-.67 2.05-2.08 1.64-1.91-.56-3.82-1.12-5.7-1.77-1-.34-1.5-.3-1.68.87a14.39 14.39 0 0 1-.8 2.62c-.26.68-.11 1 .62 1.16 2.3.64 4.58 1.36 6.86 2.06a1.93 1.93 0 0 1 1.47 1.11 1.42 1.42 0 0 1-1.73 1.85c-3.36-1-6.72-2-10.05-3a1.71 1.71 0 0 1-1.23-2.36c1.31-4.43 2.67-8.84 4-13.25.31-1.04.88-1.66 2.44-1.48Z"
            fill="#171113" data-color="2"></path>
        <path
            d="M280.54 104a33.73 33.73 0 0 1 .1 5.13c-.48 4.15-5.24 5-7.61 3.54-2.89-1.75-4.66-6.84-3.39-10a5 5 0 0 1 2.6-2.85 1.63 1.63 0 0 1 1.86 2.65 6.15 6.15 0 0 1-.53.49 3.89 3.89 0 0 0-.3 5.89 2.32 2.32 0 0 0 2.44.88 2.1 2.1 0 0 0 1.62-2.13c.05-1.63-.08-3.27-.13-4.9a6.55 6.55 0 0 1 .26-2.25 4.49 4.49 0 0 1 7.16-2.19 8.59 8.59 0 0 1 2.87 8.53 3.91 3.91 0 0 1-1.87 2.66 1.73 1.73 0 0 1-2.39-.23 1.55 1.55 0 0 1 .25-2.33c1.73-1.66 1.77-2.67.86-4.72a2.31 2.31 0 0 0-2.43-1.56c-1.21.35-1.31 1.37-1.37 2.39-.02.36 0 .68 0 1Z"
            fill="#171113" data-color="2"></path>
        <path
            d="M158.32 9.31c0 3.95 1.15 5.63 3.7 6.12a4.08 4.08 0 0 0 4.5-2c.21-.34.39-.7.59-1a1.46 1.46 0 0 1 2-.65 1.51 1.51 0 0 1 .94 1.84 6.24 6.24 0 0 1-5.38 4.77c-4.15.45-8.45-.8-9.73-6-1.07-4.4.51-10.24 5.54-11.86a8.72 8.72 0 0 1 9.17 2.43 5 5 0 0 1 1.29 3.27 1.57 1.57 0 0 1-1.29 1.64 1.5 1.5 0 0 1-1.75-.94c-.23-.46-.38-1-.62-1.42a4.33 4.33 0 0 0-7.6-.51 8.4 8.4 0 0 0-1.36 4.31Z"
            fill="#171213" data-color="3"></path>
        <path
            d="M270.44 75.13c5.93 0 10.26 6.88 7.48 11.92a4.12 4.12 0 0 1-1.34 1.5 1.55 1.55 0 0 1-2.08-.11 1.53 1.53 0 0 1-.25-2c.18-.35.4-.68.62-1a4.11 4.11 0 0 0-.07-4.91 4.35 4.35 0 0 0-4.64-1.78 10.24 10.24 0 0 0-5.16 2.6 4.43 4.43 0 0 0 3.55 7.73 2.24 2.24 0 0 1 1.93.32c1 .92.49 2.4-1 2.87a6.83 6.83 0 0 1-6.91-2.2c-3.67-4.32-2.92-9.76 1.79-12.92a11.53 11.53 0 0 1 6.08-2.02Z"
            fill="#171213" data-color="3"></path>
        <path
            d="M101.73 12.85c.6-2.32 1.16-4.51 1.73-6.7a6 6 0 0 1 .27-.92 1.64 1.64 0 0 1 2.1-1.1 1.45 1.45 0 0 1 1 1.89 31.09 31.09 0 0 1-1.33 5.08 10.2 10.2 0 0 0 .17 8.51 7.31 7.31 0 0 1 .45 1.6 1.67 1.67 0 0 1-1.12 2.16 1.64 1.64 0 0 1-2.22-1.08c-.57-1.52-1.05-3.09-1.51-4.65a3.65 3.65 0 0 0-1.27-1.93q-3.17-2.57-6.24-5.24a1.61 1.61 0 0 1-.57-2.12A1.73 1.73 0 0 1 95 7.43a2.17 2.17 0 0 1 1.23.69c1.77 1.54 3.59 3.1 5.5 4.73Z"
            fill="#171213" data-color="3"></path>
        <path
            d="M267.26 63.05a2.11 2.11 0 0 1-1 1.68c-3.86 2.75-7.72 5.51-11.6 8.23a1.81 1.81 0 0 1-2.74-.29 1.79 1.79 0 0 1 .6-2.68q5.78-4.15 11.59-8.25a1.85 1.85 0 0 1 3.15 1.31Z"
            fill="#171213" data-color="3"></path>
        <path d="M251.69 53.46a1.81 1.81 0 0 1 1-.57c0 .54-.41.66-.71.87Z" fill="#d1d1d1"
            data-color="4"></path>
        <path
            d="M146.94 32a116.83 116.83 0 1 0 114.55 118.58A116.75 116.75 0 0 0 146.94 32Zm103.12 118.4A105.48 105.48 0 0 1 143.7 254.14c-57.58-.5-104.45-47.61-104.4-105.37-.11-58.46 48.18-106.46 107.37-105.4 56.65 1.01 104.22 47.78 103.39 106.98Z"
            fill="#130c0d" data-color="5"></path>
        <path
            d="M213.92 16.25a68.77 68.77 0 0 0-7.56-3.84 1.62 1.62 0 0 0-2.32.82q-3.24 6.39-6.4 12.83a1.82 1.82 0 1 0 3.25 1.63c.82-1.51 1.58-3 2.31-4.59.26-.56.47-.64 1.06-.38a3.8 3.8 0 0 1 2.51 3.22c.14 1.31.24 2.62.37 3.93a18.62 18.62 0 0 0 .31 2.49 1.84 1.84 0 0 0 2 1.45 1.35 1.35 0 0 0 1.44-1.32 13.34 13.34 0 0 0-1.23-7.56l1 .07a4.46 4.46 0 0 0 5.25-3.11 4.6 4.6 0 0 0-1.99-5.64Zm-1.61 4.44a2.15 2.15 0 0 1-2.18 1.57c-1.79-.25-3.41-1.32-5.12-2.15-.35-.18 0-.5.05-.73.5-1 1-2.06 1.52-3.1.19-.4.36-.57.81-.32 1.32.73 2.7 1.36 4 2.14a2 2 0 0 1 .92 2.59Z"
            fill="#171113" data-color="2"></path>
        <path
            d="M52.33 36.91a6.33 6.33 0 0 0-7.59.67c-1.67 1.37-3.26 2.83-4.82 4.31-1 1-1 1.77-.1 2.84s1.66 1.84 2.49 2.75c2.15 2.36 4.3 4.73 6.46 7.08 1.14 1.24 1.95 1.44 3 .56a47.38 47.38 0 0 0 5.31-5 6.59 6.59 0 0 0 1.58-4.22c-.48-4.14-2.8-7.03-6.33-8.99Zm1.34 12.48c-.79.72-1.53 1.93-2.4 2S49.76 50.1 49 49.34c-1.81-1.91-3.55-3.89-5.36-5.8-.48-.51-.44-.79.08-1.21a24.24 24.24 0 0 1 2.77-2.27 3.59 3.59 0 0 1 2.73-.52c2.53.51 5.81 4.39 5.84 7.05a3.61 3.61 0 0 1-1.39 2.8Z"
            fill="#171113" data-color="2"></path>
        <path
            d="M31.24 81c-.21-1.23-1.2-1.4-2.15-1.5-4.84-.51-9.68-1-14.53-1.45a2.65 2.65 0 0 0-3 1.74 2.86 2.86 0 0 0 .84 3l5.88 6.79c1.25 1.45 2.48 2.92 3.78 4.32a1.77 1.77 0 0 0 2.56.29c.78-.64.83-1.55.06-2.53a23.6 23.6 0 0 0-1.81-2.06.9.9 0 0 1-.16-1.26c.63-1.11 1.2-2.25 1.78-3.38 1.12-2.17 1.11-2.17 3.48-2h.71c1.96.16 2.82-.54 2.56-1.96Zm-10.86 5.87-5.11-5.56 7.5 1c-.85 1.63-1.61 3.06-2.39 4.56Z"
            fill="#171113" data-color="2"></path>
        <path
            d="M232.86 27.56c-1.22-.86-2.34-.42-3.44.28l-11.72 7.43a6.84 6.84 0 0 0-.95.73 1.59 1.59 0 0 0-.24 2.26 1.48 1.48 0 0 0 2.18.49c.89-.54 1.77-1.08 2.62-1.67a.81.81 0 0 1 1.13 0c1.5 1.14 3 2.24 4.55 3.32a1 1 0 0 1 .44 1.3 22.26 22.26 0 0 0-.7 2.9 1.57 1.57 0 0 0 1.18 1.93 1.63 1.63 0 0 0 2.14-1 7.2 7.2 0 0 0 .36-1.14l2.22-8.81q.72-2.9 1.46-5.79a2.64 2.64 0 0 0-1.23-2.23Zm-4.38 10.5-4.17-3 6.25-4.24c-.73 2.52-1.38 4.79-2.08 7.24Z"
            fill="#171113" data-color="2"></path>
        <path
            d="M214.52 104.67c0-9.65-9.52-16.87-18.88-14.54a15.66 15.66 0 0 0-8.1 5c-.31-.43-.17-.83-.18-1.21 0-2.27 0-4.55-.11-6.83A15.13 15.13 0 0 0 168 73.33a15.62 15.62 0 0 0-7.45 4.8c-.17-1.09-.29-2-.47-2.95a14.91 14.91 0 0 0-29.3.28c-.54 3-.16 6.06-.28 9.09a2.47 2.47 0 0 1-.14 1.3c-.5-.57-.93-1.1-1.4-1.59a15 15 0 0 0-16.41-3.6A15.32 15.32 0 0 0 103 94.77v59.36c-4.93-3.83-9.64-7.52-14.38-11.17a22 22 0 0 0-14.41-4.63 23 23 0 0 0-17.11 8.14 10.71 10.71 0 0 0 .16 14.76q8.07 8.63 16.17 17.21c7.34 7.8 14.55 15.73 22.09 23.32a76.69 76.69 0 0 0 30 18.77c13.36 4.55 27 5.13 40.78 2.63 16.39-3 30-10.77 40.37-23.9 4.75-6 7.77-12.87 7.82-20.56.16-24.7.09-49.35.03-74.03Zm-45.07 73.18A19.65 19.65 0 1 1 149.83 158a19.65 19.65 0 0 1 19.62 19.85ZM118 90a4.76 4.76 0 0 1 4.91 4.82c.15 6.23.19 12.46.25 18.69.07 8.52.21 17 .12 25.54a8.89 8.89 0 0 0 8.7 9.22c4.94.1 8.8-3.94 8.81-9.21V78.6a4.61 4.61 0 0 1 2.77-4.51 4.38 4.38 0 0 1 5 .75 5 5 0 0 1 1.64 4.07v59.38a11.07 11.07 0 0 0 .84 5.15 11.71 11.71 0 0 0 3.4 3.94c-2.74 0-5.49-.11-8.23 0a73.27 73.27 0 0 0-31.46 8.15c-1.13.6-1.15.6-1.16-.77q0-10.5-.08-21 0-9-.06-18.11c0-6.83-.11-13.67-.14-20.5A4.91 4.91 0 0 1 118 90Zm-28.64 90.12c-3.49-3.69-6.88-7.24-10.24-10.81q-6.5-6.88-13-13.8c-1.48-1.58-1.47-2 .11-3.52a12.62 12.62 0 0 1 15.8-1c6.08 4.61 12.05 9.36 18.08 14 .53.41.52.64.06 1.09a63.33 63.33 0 0 0-10.81 14.04Zm113 6.4c-3.62 8-9.53 14-16.92 18.58a61.17 61.17 0 0 1-25.54 8.53 72.31 72.31 0 0 1-30.43-2.48A53.26 53.26 0 0 1 98.6 187a1.8 1.8 0 0 1 0-2.15 52.82 52.82 0 0 1 23.72-21.39c.3-.14.6-.44 1.08-.18a30.1 30.1 0 0 0 44 38.83 30.46 30.46 0 0 0 8.29-40 37.78 37.78 0 0 1 5.39 2.41 52.78 52.78 0 0 1 21.16 19.79 2.09 2.09 0 0 1 .09 2.21Zm1.79-17a63.76 63.76 0 0 0-19.29-14.73 71.66 71.66 0 0 0-23.28-6.79c-.06-.53.37-.34.57-.43a8.6 8.6 0 0 0 5.11-8V88.48c0-3.35 2.43-5.62 5.56-5.22a5 5 0 0 1 4.25 5.14v51.34a8.46 8.46 0 0 0 6.36 8.27 8.6 8.6 0 0 0 9.7-4.19 8.43 8.43 0 0 0 1-4.12v-34.07a5.12 5.12 0 0 1 3.91-5.32 5 5 0 0 1 6.16 4.43v63.69a1.66 1.66 0 0 1-.08 1.06Z"
            fill="#11090b" data-color="6"></path>
    </g>
</svg>